<?xml version="1.0" standalone="no"?>
<!DOCTYPE svg PUBLIC "-//W3C//DTD SVG 20010904//EN"
 "http://www.w3.org/TR/2001/REC-SVG-20010904/DTD/svg10.dtd">
<svg version="1.0" xmlns="http://www.w3.org/2000/svg"
 width="1024.000000pt" height="1024.000000pt" viewBox="0 0 1024.000000 1024.000000"
 preserveAspectRatio="xMidYMid meet">
<metadata>
Created by potrace 1.11, written by Peter Selinger 2001-2013
</metadata>
<g transform="translate(0.000000,1024.000000) scale(0.100000,-0.100000)"
fill="#000000" stroke="none">
<path d="M5428 9964 c-2 -2 -44 -5 -93 -8 -50 -3 -112 -8 -140 -11 -102 -11
-151 -17 -180 -22 -16 -3 -41 -6 -55 -8 -14 -1 -54 -8 -90 -15 -36 -7 -74 -14
-85 -15 -11 -1 -20 -3 -20 -4 0 -1 -13 -4 -30 -6 -16 -2 -50 -9 -75 -15 -25
-6 -54 -12 -65 -14 -11 -2 -40 -9 -65 -16 -25 -7 -52 -13 -60 -15 -8 -2 -35
-9 -60 -16 -25 -7 -49 -14 -55 -15 -5 0 -17 -4 -25 -7 -13 -5 -216 -69 -230
-73 -3 0 -14 -4 -25 -9 -53 -21 -181 -69 -190 -71 -5 -1 -37 -15 -70 -30 -33
-15 -69 -29 -79 -31 -11 -2 -27 -10 -36 -18 -9 -8 -23 -15 -31 -15 -8 0 -20
-5 -27 -12 -7 -7 -12 -8 -12 -3 0 6 -3 6 -8 0 -4 -5 -59 -36 -122 -67 -140
-70 -205 -106 -346 -193 -60 -36 -118 -72 -129 -78 -10 -7 -25 -17 -32 -24 -7
-6 -29 -21 -50 -34 -21 -13 -40 -25 -43 -28 -3 -4 -27 -22 -55 -41 -57 -39
-245 -185 -290 -225 -16 -15 -55 -47 -85 -73 -65 -55 -410 -397 -410 -406 0
-4 -10 -17 -23 -29 -21 -21 -122 -141 -200 -238 -20 -25 -37 -51 -37 -58 0 -6
-4 -11 -8 -11 -8 0 -66 -78 -127 -170 -16 -25 -32 -47 -35 -50 -3 -3 -10 -14
-17 -25 -7 -11 -48 -78 -91 -150 -43 -71 -92 -155 -107 -185 -16 -30 -35 -62
-41 -70 -7 -8 -13 -18 -13 -22 -1 -5 -31 -70 -67 -145 -76 -160 -76 -161 -105
-233 -12 -30 -30 -74 -40 -97 -11 -24 -24 -63 -31 -88 -7 -25 -16 -45 -20 -45
-4 0 -8 -7 -8 -15 0 -9 -9 -40 -19 -70 -11 -30 -17 -55 -14 -55 3 0 0 -6 -6
-13 -6 -8 -13 -24 -15 -38 -3 -13 -5 -24 -6 -24 -1 0 -3 -7 -5 -15 -2 -8 -14
-49 -25 -90 -12 -41 -23 -82 -25 -90 -31 -127 -55 -232 -60 -260 -3 -19 -8
-42 -10 -50 -2 -8 -7 -35 -11 -60 -3 -25 -8 -56 -11 -70 -2 -14 -5 -38 -7 -55
-5 -38 -16 -112 -21 -145 -5 -27 -13 -114 -22 -220 -14 -172 -6 -720 12 -860
5 -42 12 -97 20 -170 4 -30 9 -66 11 -80 2 -14 7 -41 10 -60 4 -19 7 -39 8
-45 2 -5 6 -30 10 -55 11 -66 12 -73 20 -91 4 -9 8 -33 9 -53 1 -20 5 -36 8
-36 3 0 6 -6 6 -12 1 -29 14 -81 53 -213 8 -28 31 -110 36 -127 1 -5 3 -10 4
-13 1 -3 4 -9 5 -15 1 -5 4 -12 5 -15 1 -3 3 -8 4 -12 7 -32 87 -255 111 -308
7 -16 22 -52 33 -80 29 -73 67 -155 134 -290 82 -167 115 -226 211 -382 61
-100 70 -115 80 -127 4 -6 41 -58 81 -116 41 -58 80 -110 85 -117 6 -7 11 -16
11 -22 0 -5 4 -11 8 -13 4 -1 34 -37 67 -78 32 -41 61 -77 64 -80 4 -3 31 -34
61 -70 135 -161 356 -381 520 -520 36 -30 67 -57 70 -60 3 -3 25 -21 50 -40
25 -19 47 -37 50 -40 25 -28 374 -271 386 -269 4 0 10 -3 13 -8 6 -9 139 -93
146 -93 3 0 33 -17 67 -38 35 -20 95 -53 133 -72 39 -19 72 -38 73 -43 2 -4 7
-5 12 -2 4 3 13 -2 20 -10 7 -8 16 -15 21 -15 5 0 39 -14 76 -31 38 -17 82
-37 98 -44 17 -7 56 -24 87 -38 31 -14 59 -23 62 -19 3 3 6 1 6 -5 0 -5 6 -10
13 -11 10 0 172 -58 232 -82 34 -14 90 -30 96 -27 3 1 13 -4 22 -12 10 -7 17
-11 17 -8 0 3 24 -2 53 -12 28 -10 57 -19 62 -20 6 -1 28 -6 50 -12 22 -6 47
-12 55 -14 8 -2 42 -10 75 -18 76 -20 259 -57 305 -63 19 -2 46 -6 60 -9 80
-15 278 -39 332 -39 27 -1 48 -3 48 -6 0 -12 527 -17 685 -6 153 10 275 23
395 41 22 3 54 8 72 11 73 11 94 14 118 19 30 7 116 24 150 30 14 3 79 19 145
36 66 17 127 32 135 34 8 1 22 5 30 8 12 5 237 76 260 82 3 1 19 7 35 14 56
23 110 42 123 43 6 1 12 5 12 10 0 4 3 7 8 6 4 -2 27 6 52 16 25 11 47 20 50
21 45 14 417 192 430 205 3 3 16 11 30 18 14 6 32 16 40 21 8 5 62 38 120 72
112 67 298 189 341 223 15 12 39 30 54 41 16 11 34 26 41 32 7 7 15 13 19 13
6 0 128 99 249 203 32 28 34 22 -44 107 -19 21 -60 66 -90 101 -30 34 -68 77
-85 95 -16 17 -52 58 -80 90 -27 31 -70 80 -95 108 -58 65 -73 81 -145 162
-33 37 -69 77 -80 89 -11 13 -49 56 -85 95 -36 40 -71 82 -78 92 -13 18 -15
18 -40 2 -15 -10 -38 -28 -52 -41 -48 -46 -274 -214 -343 -256 -16 -10 -36
-24 -44 -32 -8 -8 -19 -15 -24 -15 -6 0 -25 -11 -43 -25 -18 -14 -38 -25 -44
-25 -6 0 -12 -3 -14 -7 -7 -17 -319 -173 -443 -223 -161 -64 -319 -119 -390
-136 -5 -1 -46 -12 -90 -23 -138 -37 -325 -72 -450 -86 -33 -4 -72 -9 -87 -11
-105 -16 -506 -24 -525 -10 -8 5 -13 4 -13 -3 0 -7 -5 -9 -12 -5 -7 4 -35 9
-63 10 -63 2 -195 14 -215 19 -8 2 -35 6 -60 9 -25 4 -70 11 -100 16 -30 6
-66 12 -80 14 -19 3 -174 39 -220 51 -3 1 -18 5 -35 9 -16 5 -50 15 -75 23
-25 8 -55 17 -68 19 -12 3 -46 14 -75 25 -28 12 -56 22 -62 24 -19 4 -94 33
-170 65 -131 56 -172 75 -187 88 -10 8 -18 12 -18 7 0 -4 -6 -3 -12 3 -7 5
-49 29 -93 52 -44 24 -109 60 -144 81 -34 22 -67 39 -71 39 -5 0 -10 3 -12 8
-4 9 -96 72 -106 72 -4 0 -19 10 -32 23 -14 12 -41 33 -60 47 -19 13 -39 28
-45 32 -5 5 -43 34 -82 65 -40 31 -73 60 -73 65 0 4 -4 8 -10 8 -18 0 -251
225 -350 339 -30 35 -64 73 -75 86 -75 85 -285 374 -285 392 0 3 -10 20 -23
37 -12 17 -33 51 -46 76 -13 25 -29 52 -36 60 -23 30 -198 400 -189 400 2 0
-3 15 -12 32 -15 28 -77 201 -90 248 -2 8 -11 40 -20 70 -36 124 -88 355 -92
410 -1 8 -4 26 -6 40 -12 63 -27 183 -31 245 -1 23 -4 46 -7 51 -6 11 -2 475
5 566 5 65 16 155 22 187 1 9 6 39 9 66 4 28 11 69 17 93 5 23 11 58 14 77 2
20 6 39 9 44 3 4 8 23 11 42 11 61 24 117 40 162 8 24 16 52 18 63 2 10 7 26
10 34 3 8 11 33 17 55 6 22 15 49 20 60 4 11 18 47 30 80 12 33 26 69 30 80
62 147 96 221 103 226 4 3 9 12 11 20 1 8 13 34 26 59 13 25 24 49 25 53 0 4
6 11 13 16 8 5 13 11 13 15 -1 6 21 51 44 88 5 9 20 35 33 58 12 23 27 47 33
53 5 7 29 42 52 78 23 36 51 77 62 91 11 14 27 36 35 48 8 12 20 28 25 34 6 6
34 41 64 79 29 37 67 84 84 104 40 47 312 319 352 353 17 14 60 50 96 80 36
30 78 64 93 75 16 11 33 25 40 30 19 16 74 55 160 111 45 30 86 57 91 62 6 4
17 11 25 15 8 4 38 20 65 36 28 17 106 58 175 93 69 35 128 68 132 73 4 6 8 7
8 2 0 -4 15 0 33 10 17 9 34 18 37 18 8 2 41 16 75 30 17 7 64 25 105 40 41
15 82 29 90 32 8 3 24 8 35 10 10 2 22 7 25 11 3 4 12 8 20 8 8 0 22 4 30 7
17 7 198 56 233 63 12 2 36 7 52 9 17 3 39 8 50 12 11 3 31 7 45 9 14 2 66 10
115 18 162 26 372 44 570 46 37 1 360 -18 360 -21 0 0 18 -3 40 -4 34 -3 91
-11 145 -21 8 -1 35 -6 60 -10 25 -4 50 -8 55 -10 6 -1 28 -5 49 -8 147 -24
459 -118 641 -193 114 -47 335 -154 420 -203 22 -13 49 -28 60 -34 51 -29 287
-185 295 -195 3 -4 21 -18 40 -31 42 -29 51 -36 95 -75 19 -16 47 -40 62 -52
36 -28 84 -70 153 -136 30 -29 60 -56 67 -60 12 -7 883 854 883 873 0 12 -68
80 -175 175 -37 33 -80 71 -95 85 -48 44 -80 70 -84 70 -4 0 -43 31 -75 60 -9
8 -50 39 -91 69 -41 30 -77 57 -80 60 -10 12 -101 71 -109 71 -5 0 -11 4 -13
8 -3 8 -92 69 -143 98 -11 6 -49 29 -85 51 -36 22 -92 54 -125 72 -33 18 -64
37 -69 42 -6 5 -18 9 -27 9 -10 0 -19 4 -21 8 -1 5 -37 24 -78 44 -96 47 -250
118 -254 118 -2 0 -21 8 -42 17 -22 9 -41 17 -44 18 -11 4 -47 18 -78 32 -18
8 -40 16 -50 18 -24 6 -263 86 -287 96 -22 10 -126 38 -165 46 -14 2 -32 7
-40 10 -8 3 -19 7 -25 9 -26 6 -72 16 -92 19 -12 2 -26 5 -30 8 -5 3 -28 8
-53 12 -25 4 -48 9 -51 11 -4 2 -24 6 -45 9 -22 3 -50 7 -64 10 -14 3 -41 8
-60 11 -19 3 -46 7 -60 10 -45 7 -104 15 -151 18 -26 2 -51 5 -55 8 -5 2 -36
6 -69 7 -89 5 -130 9 -130 11 0 4 -584 8 -587 4z"/>
<path d="M5508 7585 c-2 -1 -41 -6 -88 -9 -77 -6 -125 -12 -125 -16 0 -1 -18
-3 -40 -6 -22 -2 -61 -9 -86 -15 -26 -6 -53 -12 -60 -13 -144 -29 -376 -110
-539 -188 -104 -50 -274 -147 -278 -159 -2 -5 -8 -9 -13 -9 -9 0 -196 -134
-209 -149 -3 -3 -25 -22 -50 -42 -117 -95 -284 -275 -392 -422 -20 -29 -41
-57 -46 -63 -5 -6 -29 -42 -52 -80 -24 -38 -50 -77 -58 -86 -8 -10 -12 -18 -8
-18 3 0 -4 -17 -17 -37 -45 -71 -171 -353 -181 -404 -2 -8 -8 -27 -14 -42 -7
-16 -12 -34 -12 -40 0 -7 -7 -31 -15 -55 -9 -24 -16 -54 -17 -68 -1 -13 -5
-24 -9 -24 -4 0 -6 -6 -6 -12 1 -7 -7 -56 -17 -108 -21 -109 -22 -118 -32
-220 -12 -114 -6 -565 6 -565 1 0 3 -11 4 -25 3 -23 18 -118 21 -130 3 -13 18
-97 20 -116 2 -12 8 -31 14 -43 7 -11 9 -21 7 -21 -3 0 1 -18 9 -40 8 -22 15
-44 16 -48 1 -4 3 -11 5 -17 2 -5 10 -30 18 -55 21 -68 52 -148 80 -213 14
-31 25 -59 23 -61 -1 -2 7 -13 17 -25 11 -12 15 -21 10 -21 -5 0 -4 -4 1 -8 6
-4 26 -38 45 -77 19 -38 38 -74 43 -80 4 -5 34 -52 67 -103 33 -52 65 -99 70
-105 6 -7 42 -52 82 -102 134 -167 348 -364 543 -499 134 -93 380 -222 516
-271 158 -57 312 -101 414 -120 101 -18 198 -31 295 -41 59 -5 365 -5 410 1
19 2 64 7 99 10 36 3 68 8 71 10 4 2 29 7 56 11 27 3 58 8 69 11 11 2 31 6 45
9 14 3 50 12 80 20 30 9 64 18 75 20 29 5 213 69 260 90 22 10 42 18 45 19 31
5 342 173 385 208 6 4 37 27 70 50 93 64 201 150 213 168 8 12 3 23 -22 50
-17 19 -83 93 -146 164 -63 72 -119 135 -125 141 -5 6 -39 44 -75 84 -36 39
-76 84 -90 99 -14 16 -52 59 -85 96 -33 38 -69 79 -80 91 -11 12 -48 54 -83
92 -35 39 -74 83 -87 98 l-23 27 -86 -64 c-47 -35 -111 -77 -143 -94 -32 -16
-65 -35 -73 -41 -8 -7 -63 -28 -121 -48 -106 -37 -123 -41 -188 -52 -18 -3
-42 -7 -53 -9 -42 -9 -140 -18 -148 -15 -16 6 -60 4 -60 -3 0 -4 -3 -6 -7 -4
-5 3 -43 8 -86 11 -43 3 -113 13 -155 22 -42 9 -84 17 -93 19 -34 7 -157 58
-234 97 -69 35 -161 94 -229 148 -40 31 -153 146 -191 195 -22 28 -43 52 -47
53 -5 2 -8 8 -8 12 0 5 -14 29 -31 54 -29 44 -116 222 -125 255 -2 9 -11 41
-20 71 -52 178 -63 407 -29 600 13 70 37 155 48 169 7 8 10 15 8 15 -8 2 23
83 59 151 53 101 60 112 117 190 207 281 520 465 867 511 135 18 424 2 478
-27 9 -5 28 -9 42 -9 14 0 27 -4 30 -9 3 -4 18 -11 33 -14 16 -3 46 -14 68
-23 22 -10 42 -18 45 -19 3 0 34 -16 70 -34 86 -45 184 -114 280 -198 l36 -32
442 442 443 441 -48 46 c-278 265 -661 487 -1029 594 -87 25 -109 31 -164 42
-14 3 -41 9 -60 14 -33 8 -128 23 -230 36 -48 6 -427 14 -432 9z"/>
</g>
</svg>
