<svg width="16px" height="16px" viewBox="0 0 16 16" version="1.1" xmlns:xlink="http://www.w3.org/1999/xlink" xmlns="http://www.w3.org/2000/svg">
    <path d="M8 8C10.21 8 12 6.21 12 4C12 1.79 10.21 0 8 0C5.79 0 4 1.79 4 4C4 6.21 5.79 8 8 8L8 8ZM8 10C5.33 10 0 11.34 0 14L0 16L16 16L16 14C16 11.34 10.67 10 8 10L8 10Z" id="path_1" />
    <path d="M8 8C10.21 8 12 6.21 12 4C12 1.79 10.21 0 8 0C5.79 0 4 1.79 4 4C4 6.21 5.79 8 8 8L8 8ZM8 10C5.33 10 0 11.34 0 14L0 16L16 16L16 14C16 11.34 10.67 10 8 10L8 10Z" id="Mask" fill="#43444B" stroke="none" />
</svg>