
<svg width="14px" height="14px" viewBox="0 0 14 14" version="1.1" xmlns:xlink="http://www.w3.org/1999/xlink" xmlns="http://www.w3.org/2000/svg"> 
    <path d="M7 0C3.136 0 0 3.136 0 7C0 10.864 3.136 14 7 14C10.864 14 14 10.864 14 7C14 3.136 10.864 0 7 0L7 0ZM7.7 10.5L6.3 10.5L6.3 9.1L7.7 9.1L7.7 10.5L7.7 10.5ZM7.7 7.7L6.3 7.7L6.3 3.5L7.7 3.5L7.7 7.7L7.7 7.7Z" id="path_1" />    
  <path d="M7 0C3.136 0 0 3.136 0 7C0 10.864 3.136 14 7 14C10.864 14 14 10.864 14 7C14 3.136 10.864 0 7 0L7 0ZM7.7 10.5L6.3 10.5L6.3 9.1L7.7 9.1L7.7 10.5L7.7 10.5ZM7.7 7.7L6.3 7.7L6.3 3.5L7.7 3.5L7.7 7.7L7.7 7.7Z" id="Mask" fill="#3F4048" stroke="none" />
</svg>