<?xml version="1.0" encoding="utf-8"?>
<svg width="16px" height="16px" viewBox="0 0 16 16" version="1.1" xmlns:xlink="http://www.w3.org/1999/xlink" xmlns="http://www.w3.org/2000/svg">
  <desc>Created with Lunacy</desc>
  <path d="M9.02466 0L6.77348 0Q6.71726 0 6.66461 0.0196798Q6.61195 0.0393596 6.56951 0.0762285Q6.52708 0.113097 6.50023 0.162489Q6.47339 0.211882 6.46553 0.267546L6.21063 2.07399C5.77946 2.20011 5.36813 2.3728 4.98237 2.58623L3.53197 1.47617Q3.48689 1.44167 3.43254 1.42532Q3.37819 1.40897 3.32156 1.41287Q3.26494 1.41678 3.21334 1.44043Q3.16175 1.46408 3.12183 1.50444L1.53848 3.10526Q1.49927 3.1449 1.47628 3.19568Q1.45329 3.24646 1.44936 3.30207Q1.44544 3.35768 1.46107 3.41119Q1.47671 3.4647 1.50995 3.50944L2.59562 4.97064C2.38026 5.35842 2.20576 5.77214 2.07795 6.20592L0.268624 6.45477Q0.212793 6.46245 0.163207 6.48923Q0.113621 6.51602 0.0765859 6.55849Q0.0395504 6.60097 0.0197752 6.65374Q0 6.70652 0 6.76287L0 9.01406Q0 9.07027 0.0196798 9.12293Q0.0393596 9.17559 0.0762285 9.21802Q0.113097 9.26046 0.162489 9.28731Q0.211881 9.31415 0.267546 9.32201L2.04853 9.57332C2.17248 10.0231 2.34639 10.4521 2.56391 10.854L1.50319 12.2694Q1.46967 12.3142 1.45382 12.3678Q1.43798 12.4214 1.4418 12.4772Q1.44562 12.533 1.46863 12.5839Q1.49164 12.6349 1.53096 12.6746L3.11418 14.2753Q3.15401 14.3156 3.20548 14.3392Q3.25695 14.3629 3.31345 14.3669Q3.36995 14.3708 3.42423 14.3546Q3.4785 14.3384 3.52358 14.3041L4.90548 13.2529C5.31602 13.4879 5.75648 13.6764 6.21976 13.8111L6.45459 15.5185Q6.46227 15.5743 6.48905 15.6239Q6.51583 15.6735 6.55831 15.7105Q6.60079 15.7476 6.65356 15.7673Q6.70633 15.7871 6.76269 15.7871L9.01387 15.7871Q9.07009 15.7871 9.12275 15.7674Q9.1754 15.7477 9.21784 15.7109Q9.26028 15.674 9.28712 15.6246Q9.31397 15.5752 9.32182 15.5196L9.56065 13.827C10.0318 13.6949 10.4797 13.5074 10.8972 13.2719L12.2554 14.3114Q12.3005 14.3459 12.3548 14.3623Q12.4092 14.3786 12.4658 14.3747Q12.5224 14.3708 12.574 14.3472Q12.6256 14.3235 12.6655 14.2832L14.2489 12.6823Q14.2881 12.6427 14.3111 12.5919Q14.3341 12.5411 14.338 12.4855Q14.3419 12.4299 14.3263 12.3764Q14.3106 12.3229 14.2774 12.2782L13.2498 10.8951C13.4782 10.4807 13.6601 10.0369 13.7883 9.57083L15.5187 9.33282Q15.5746 9.32514 15.6241 9.29836Q15.6737 9.27158 15.7108 9.2291Q15.7478 9.18663 15.7676 9.13385Q15.7874 9.08108 15.7874 9.02472L15.7874 6.77354Q15.7874 6.71733 15.7677 6.66467Q15.748 6.61201 15.7111 6.56957Q15.6743 6.52714 15.6249 6.50029Q15.5755 6.47345 15.5198 6.46559L13.7616 6.21749C13.6297 5.76658 13.4474 5.33724 13.2212 4.93607L14.2841 3.51767Q14.3176 3.47293 14.3335 3.41931Q14.3493 3.36569 14.3455 3.30991Q14.3417 3.25413 14.3187 3.20318Q14.2957 3.15222 14.2563 3.11247L12.6731 1.51178Q12.6333 1.47151 12.5818 1.44787Q12.5303 1.42423 12.4738 1.42025Q12.4173 1.41627 12.3631 1.43247Q12.3088 1.44867 12.2637 1.48296L10.8303 2.57333C10.4376 2.35826 10.0185 2.18534 9.57924 2.06065L9.33276 0.268624Q9.32508 0.212794 9.2983 0.163207Q9.27152 0.113621 9.22904 0.0765859Q9.18657 0.0395504 9.13379 0.0197752Q9.08102 0 9.02466 0ZM9.84727 7.94089C9.84727 9.02068 8.98104 9.89154 7.91805 9.89154C6.85506 9.89154 5.98883 9.02068 5.98883 7.94089C5.98883 6.8611 6.85506 5.99023 7.91805 5.99023C8.98104 5.99023 9.84727 6.8611 9.84727 7.94089Z" id="Combined-Shape" fill="#43444B" fill-rule="evenodd" stroke="none" />
</svg>